<?xml version="1.0" encoding="utf-8"?>
<!-- Generator: Adobe Illustrator 19.2.1, SVG Export Plug-In . SVG Version: 6.00 Build 0)  -->
<svg version="1.1" id="Layer_1" xmlns="http://www.w3.org/2000/svg" xmlns:xlink="http://www.w3.org/1999/xlink" x="0px" y="0px"
	 viewBox="0 0 29.1 23.3" style="enable-background:new 0 0 29.1 23.3;" xml:space="preserve">
<style type="text/css">
	.st0{fill:#00acee;}
</style>
<path id="XMLID_49_" class="st0" d="M24.3,1.6c-1-1-2.4-1.6-4-1.6c-3.2,0-5.7,2.6-5.7,5.7c0,0.4,0.1,0.9,0.1,1.3
	C7.4,7.1,2.1,0.9,2.1,0.9s-2.9,4.4,1.8,8c-1.1,0-2.7-0.8-2.7-0.8S1.2,13,6,14c-1.2,0.1-2.7,0.1-2.7,0.1s1.6,3.7,5.5,4.2
	c-3.5,3-8.8,2.5-8.8,2.5S24,32.4,26.1,5.6c0.9-0.3,3-3.1,3-3.1c-1.9,0.8-3.4,0.9-3.4,0.9s1.9-1.1,2.6-3.3C27.5,1,24.3,1.6,24.3,1.6z
	"/>
</svg>
